<svg xmlns="http://www.w3.org/2000/svg" width="106" height="100" xmlns:v="http://www.w3.org/2000/svg"><g transform="translate(1609 -3)"><linearGradient id="A" gradientUnits="userSpaceOnUse" x1="-2514.86" y1="593.882" x2="-2514.82" y2="593.855" gradientTransform="matrix(1497.594 0 0 -1540.7512 3764658 915046.8125)"><stop offset="0" stop-color="#b200fa"/><stop offset="1" stop-color="#6300d1"/></linearGradient><path d="M-1560 5.9l-.5-2.6h0l-6.4 4.5h0l-1.5-2.1h0l-4.9 5.5h0l-1.6-1.8h0l-4.1 6.4h0l-2.2-1.8h0l-3.4 6.2h0l1.8.8h0c5.1 2.4 8.6 6.3 10.3 11.6h0c.6 1.9.7 3.5-.1 5.4h0c-1.6 3.7-.4 7.9 2.8 9.8h0c.1-.9.1-1.8.2-2.6h0c.9-6.8 6.3-9.7 12-9.2h0c4.8.4 8.6 4.1 9.4 8.8h0c.8 4.7-1.5 8.9-6 11.1h0c-5.1 2.6-10.6 3-16.2 2.2h0c-4.8-.7-8.9-3.2-12.9-5.8h0c-2.2-1.4-4.3-3-6.6-4.6h0c-1 3.9 3 5 4.1 7.7h0l-1.9 1.6h0l7.1 5.9h0c-.8.7-1.5 1.2-2.3 1.9h0l9.1 4.3h0c-.7.8-1.3 1.3-2 2.1h0l10.2 1.8h0c-.4.7-.7 1.3-1.1 2.1h0l10.2-.9h0c-.2.8-.3 1.4-.6 2.4h0l11.9-3.8h0c-.1 1-.2 1.6-.2 2.6h0l10.1-7.2h0c.2.9.4 1.5.6 2.4h0l7.1-10.1h0c.6.9 1 1.6 1.7 2.6h0l3.3-12.5h0c.8.6 1.3.9 1.9 1.4h0V40.1c.9.3 1.6.5 2.7.8h0l-4.4-10.9h0c.9-.1 1.7-.1 2.7-.2h0l-7.2-9.1h0c1-.2 1.8-.3 2.9-.5h0l-9.9-6.9h0c1-.6 1.8-1.2 2.8-1.9h0l-11.6-3.2h0c.6-.9 1-1.6 1.7-2.5h-10.9c0-1-.1-1.8-.1-2.8h0c-2.7 1.1-5.3 2.1-8 3" fill="url(#A)"/><linearGradient id="B" gradientUnits="userSpaceOnUse" x1="-1588.821" y1="35.718" x2="-1587.109" y2="38.215"><stop offset="0" stop-color="#b200fa"/><stop offset="1" stop-color="#6300d1"/></linearGradient><path d="M-1589.2 36.9c0 .6.5 1 1 1h0c.6 0 1-.5 1-1h0c0-.6-.5-1-1-1h0c-.5 0-1 .4-1 1" fill="url(#B)"/><linearGradient id="C" gradientUnits="userSpaceOnUse" x1="-2514.259" y1="594.509" x2="-2514.219" y2="594.481" gradientTransform="matrix(460.7383 0 0 -450.8364 1156820.375 268056.375)"><stop offset="0" stop-color="#b200fa"/><stop offset="1" stop-color="#6300d1"/></linearGradient><path d="M-1587.1 23.8l-9.1 16.2h0c-.4.7-.6 1.6-.6 2.3h0c-.1 1.7 1 2.5 2.6 2.1h0c.9-.2 1.8-.6 2.6-1.1h0l5.3-3.7h0c3.4-2.4 6.9-4.7 11.5-4.1h0c-.6-5.6-5.5-11.3-10.8-12.6h0-.2 0c-.4.1-1.1.5-1.3.9m-2.6 13.1a1.58 1.58 0 0 1 1.6-1.6h0a1.58 1.58 0 0 1 1.6 1.6h0a1.58 1.58 0 0 1-1.6 1.6h0a1.58 1.58 0 0 1-1.6-1.6" fill="url(#C)"/></g><linearGradient id="D" gradientUnits="userSpaceOnUse" x1="-905.718" y1="594.76" x2="-905.689" y2="594.818" gradientTransform="matrix(2211.4832 0 0 -395.5361 2002998.125 235350.6562)"><stop offset="0" stop-color="#b100fa"/><stop offset="1" stop-color="#6900d6"/></linearGradient><path d="M.4 99.8V85.1h3l.1 2.3-.6-.2c.1-.4.3-.8.7-1.2s.8-.6 1.3-.8c.5-.1 1.1-.2 1.7-.2.9 0 1.7.2 2.4.7s1.2 1.1 1.6 1.9.6 1.7.6 2.8c0 1-.2 2-.6 2.8s-.9 1.4-1.6 1.9-1.5.7-2.4.7c-.6 0-1.1-.1-1.7-.3-.5-.2-1-.5-1.3-.9-.4-.4-.6-.8-.7-1.2l.6-.4v6.8H.4zm5.4-6.7c.5 0 .9-.1 1.2-.3.4-.2.6-.6.8-.9.2-.4.3-.9.3-1.4s-.1-1-.3-1.4-.5-.7-.8-1c-.3-.2-.8-.3-1.2-.3s-.9.1-1.2.3c-.4.2-.6.5-.8 1-.2.4-.3.9-.3 1.4 0 .6.1 1 .3 1.4a2.36 2.36 0 0 0 .8.9c.3.1.7.3 1.2.3zm11.6 2.6c-.9 0-1.6-.2-2.3-.7s-1.2-1.1-1.6-1.9-.6-1.7-.6-2.8.2-2 .6-2.8 1-1.4 1.7-1.9 1.5-.7 2.4-.7c.5 0 .9.1 1.4.2.4.1.8.3 1.1.6s.6.5.8.9c.2.3.4.7.5 1.1l-.6-.1v-2.5h3.1v10.4h-3.2V93h.7c-.1.4-.3.7-.5 1s-.5.6-.9.9c-.3.3-.7.4-1.1.6-.6.1-1 .2-1.5.2zm.9-2.6c.5 0 .9-.1 1.2-.3.4-.2.6-.6.8-.9.2-.4.3-.9.3-1.5s-.1-1-.3-1.5c-.2-.4-.5-.7-.8-1-.4-.2-.8-.3-1.2-.3-.5 0-.9.1-1.2.3-.4.2-.6.6-.8 1s-.3.9-.3 1.5.1 1 .3 1.5a2.36 2.36 0 0 0 .8.9c.3.1.7.3 1.2.3h0zm8.5 2.4V85.1h3l.1 2.1-.6.2c.2-.5.4-.9.8-1.3s.8-.7 1.3-.9 1.1-.4 1.6-.4c.8 0 1.4.2 2 .5.5.3.9.8 1.2 1.4s.4 1.4.4 2.3v6.4h-3.1v-6.1c0-.4-.1-.8-.2-1-.1-.3-.3-.5-.5-.6s-.5-.2-.9-.2c-.3 0-.5 0-.8.1-.2.1-.4.2-.6.4s-.3.3-.4.6c-.1.2-.1.4-.1.7v6.2h-3.2 0zm17.5 4.5c-.9 0-1.7-.1-2.5-.4-.8-.2-1.5-.6-2-1l1.1-2.2c.3.2.6.3.9.5l1 .3c.4.1.7.1 1.1.1.7 0 1.2-.1 1.6-.3a1.96 1.96 0 0 0 .9-.9c.2-.4.3-.9.3-1.5V93l.6.1c-.1.4-.3.8-.7 1.2s-.8.7-1.3.8c-.5.2-1.1.3-1.7.3-.9 0-1.8-.2-2.5-.7-.7-.4-1.3-1.1-1.7-1.8-.4-.8-.6-1.7-.6-2.7s.2-2 .6-2.8 1-1.4 1.7-1.9 1.5-.7 2.5-.7c.4 0 .8 0 1.1.1s.7.2 1 .4c.3.1.6.3.8.5s.4.4.6.7c.1.2.2.5.3.7l-.6.2.1-2.3h3v9.5c0 .8-.1 1.6-.4 2.3-.2.6-.6 1.2-1.1 1.7s-1.1.8-1.8 1c-.6.3-1.4.4-2.3.4h0zm.1-7c.5 0 .9-.1 1.3-.3s.7-.6.9-.9c.2-.4.3-.9.3-1.4s-.1-1-.3-1.4-.5-.7-.9-1c-.4-.2-.8-.3-1.3-.3s-.9.1-1.3.3a1.59 1.59 0 0 0-.8 1c-.2.4-.3.9-.3 1.4s.1 1 .3 1.4a2.36 2.36 0 0 0 .8.9c.4.2.8.3 1.3.3h0zm13.5 2.7c-1.1 0-2-.2-2.9-.7-.8-.5-1.5-1.1-2-1.9s-.7-1.7-.7-2.8c0-1 .2-2 .7-2.8s1.2-1.5 2-1.9c.8-.5 1.8-.7 2.9-.7s2 .2 2.9.7c.8.4 1.5 1.1 2 1.9s.7 1.7.7 2.8c0 1-.2 2-.7 2.8s-1.2 1.5-2 1.9c-.9.5-1.9.7-2.9.7zm0-2.7c.4 0 .9-.1 1.2-.4.4-.2.7-.6.9-1s.3-.9.3-1.4-.1-1-.3-1.4-.5-.7-.9-1c-.4-.2-.8-.4-1.2-.4s-.9.1-1.3.4c-.4.2-.7.6-.9 1s-.3.9-.3 1.4.1 1 .3 1.4.5.7.9 1 .8.4 1.3.4zm14.5 2.7a8.21 8.21 0 0 1-2.8-.5c-.8-.3-1.6-.8-2.3-1.5-.6-.6-1.1-1.4-1.5-2.2-.3-.9-.5-1.8-.5-2.9a8.21 8.21 0 0 1 .5-2.8c.4-.8.9-1.6 1.5-2.2.7-.6 1.4-1.1 2.3-1.5s1.8-.5 2.9-.5a6.28 6.28 0 0 1 1.9.3c.6.2 1.2.4 1.7.8.5.3 1 .7 1.4 1.2l-2 2.3c-.3-.3-.6-.5-.9-.8-.3-.2-.6-.4-1-.5s-.8-.2-1.2-.2c-.5 0-1 .1-1.5.3s-.9.5-1.2.8c-.4.4-.6.8-.8 1.3s-.3 1-.3 1.7c0 .6.1 1.1.3 1.6s.5.9.8 1.3c.4.4.8.6 1.3.8s1.1.3 1.7.3c.4 0 .8-.1 1.2-.2s.7-.3 1-.5.6-.4.8-.7l1.6 2.5c-.3.4-.8.7-1.3 1-.6.3-1.2.5-1.8.7-.5 0-1.1.1-1.8.1zm7.6-.2V81.9h5.7c1 0 1.9.2 2.8.5.8.3 1.5.8 2.2 1.4.6.6 1.1 1.4 1.4 2.2a7.78 7.78 0 0 1 .5 2.8c0 1.1-.2 1.9-.5 2.8-.3.8-.8 1.6-1.4 2.2s-1.3 1.1-2.2 1.4a7.78 7.78 0 0 1-2.8.5H80zm3.4-2.3l-.4-.7h2.8c.5 0 1-.1 1.5-.3a4.44 4.44 0 0 0 1.1-.8c.3-.4.6-.8.7-1.2a4.53 4.53 0 0 0 .3-1.6 4.53 4.53 0 0 0-.3-1.6c-.2-.5-.4-.9-.7-1.2a4.44 4.44 0 0 0-1.1-.8c-.4-.2-.9-.3-1.5-.3H83l.5-.6v9.1zm11.9 2.3V81.9h5.9a4.38 4.38 0 0 1 2.3.6 4.1 4.1 0 0 1 1.6 1.6 4.38 4.38 0 0 1 .6 2.3c0 .9-.2 1.7-.6 2.4a4.1 4.1 0 0 1-1.6 1.6 4.38 4.38 0 0 1-2.3.6h-2.6v4.6h-3.3zm3.2-7.5h2.2c.3 0 .5-.1.8-.2.2-.1.4-.3.6-.6.1-.3.2-.6.2-.9s-.1-.6-.2-.9c-.1-.2-.3-.4-.6-.5-.2-.1-.5-.2-.8-.2h-2.2V88z" fill="url(#D)"/></svg>